<svg width="50" height="43" viewBox="0 0 50 43" xmlns="http://www.w3.org/2000/svg">
  <path d="M46.683234.23952L1.061526 18.017815c-1.477695.5759-1.388174 2.696408.132934 3.14551l11.592965 3.423353 4.326497 13.728443c.451946 1.433984 2.269162 1.868714 3.321108.79461l5.993862-6.12006 11.76048 8.632488c1.43922 1.056437 3.48892.271557 3.85434-1.475898l7.789072-37.23952c.381438-1.824104-1.413173-3.343865-3.14955-2.667218zm-5.71976 8.264372l-21.19102 18.739222c-.211226.186826-.345658.44536-.377095.7256l-.81587 7.252693c-.026648.236527-.357636.267815-.428294.04057l-3.356737-10.81632c-.15374-.49521.046707-1.031737.487275-1.30494L40.306138 7.62036c.57545-.357186 1.16467.43503.657335.883532z"/>
</svg>
