<?xml version="1.0" standalone="no"?>
<!DOCTYPE svg PUBLIC "-//W3C//DTD SVG 20010904//EN"
 "http://www.w3.org/TR/2001/REC-SVG-20010904/DTD/svg10.dtd">
<svg version="1.0" xmlns="http://www.w3.org/2000/svg"
 width="152.000000pt" height="152.000000pt" viewBox="0 0 152.000000 152.000000"
 preserveAspectRatio="xMidYMid meet">
<metadata>
Created by potrace 1.11, written by Peter Selinger 2001-2013
</metadata>
<g transform="translate(0.000000,152.000000) scale(0.100000,-0.100000)"
fill="#000000" stroke="none">
<path d="M108 1512 c-31 -4 -34 -8 -15 -26 6 -7 85 -101 175 -209 l163 -197
205 0 c186 0 208 -2 244 -20 22 -11 40 -26 40 -33 0 -6 -13 -36 -29 -64 -16
-29 -26 -53 -22 -53 4 0 35 10 70 21 44 15 66 18 73 11 25 -25 47 -118 44
-187 -4 -97 -29 -165 -82 -224 l-44 -49 136 -164 c75 -89 139 -166 143 -170
17 -19 154 139 201 231 117 233 112 582 -11 798 -68 118 -189 221 -344 294
l-87 41 -417 2 c-229 0 -428 0 -443 -2z"/>
<path d="M19 1389 c-3 -125 0 -1369 4 -1376 3 -4 216 -8 474 -7 l468 0 60 28
c77 35 110 57 99 65 -5 3 -31 33 -59 66 -27 33 -54 65 -60 71 -5 6 -45 53 -88
106 l-78 95 -146 -1 -146 -1 -59 -84 -58 -84 0 329 0 329 -201 240 c-111 132
-203 242 -205 244 -2 2 -4 -7 -5 -20z"/>
</g>
</svg>
